<?xml version="1.0" standalone="no"?>
<!DOCTYPE svg PUBLIC "-//W3C//DTD SVG 20010904//EN"
 "http://www.w3.org/TR/2001/REC-SVG-20010904/DTD/svg10.dtd">
<svg version="1.0" xmlns="http://www.w3.org/2000/svg"
 width="512.000000pt" height="512.000000pt" viewBox="0 0 512.000000 512.000000"
 preserveAspectRatio="xMidYMid meet">
<metadata>
Created by potrace 1.11, written by Peter Selinger 2001-2013
</metadata>
<g transform="translate(0.000000,512.000000) scale(0.100000,-0.100000)"
fill="#000000" stroke="none">
<path d="M400 5102 c-182 -48 -322 -207 -350 -397 -13 -96 -13 -4194 0 -4290
29 -198 183 -363 378 -404 75 -16 4189 -16 4264 0 196 41 349 205 378 404 13
96 13 4194 0 4290 -29 199 -182 363 -378 404 -38 8 -653 11 -2140 10 -1930 0
-2092 -1 -2152 -17z m3829 -541 c155 -48 276 -181 310 -339 16 -75 16 -3249 0
-3324 -34 -158 -155 -291 -310 -339 -59 -18 -119 -19 -1669 -19 -1550 0 -1610
1 -1669 19 -151 47 -265 168 -307 326 -20 74 -20 3276 0 3350 41 156 155 278
304 326 54 17 134 18 1669 18 1554 1 1613 0 1672 -18z"/>
<path d="M920 4369 c-55 -25 -105 -71 -133 -124 l-22 -40 0 -1645 0 -1645 22
-40 c28 -53 78 -99 133 -124 45 -20 57 -21 1640 -21 1583 0 1595 1 1640 21 55
25 105 71 133 124 l22 40 0 1645 0 1645 -22 40 c-28 53 -78 99 -133 124 -45
20 -57 21 -1640 21 -1583 0 -1595 -1 -1640 -21z m1549 -364 c141 -34 287 -138
338 -243 l28 -57 0 -715 0 -715 -27 -58 c-48 -101 -169 -194 -318 -243 -50
-17 -108 -19 -652 -22 l-598 -3 0 1035 0 1036 583 0 c483 0 593 -3 646 -15z"/>
<path d="M1752 2988 l3 -653 283 -3 282 -2 0 655 0 655 -285 0 -285 0 2 -652z"/>
</g>
</svg>
